<svg width="224" height="180" viewBox="0 0 224 180" fill="none" xmlns="http://www.w3.org/2000/svg">
<g filter="url(#filter0_d)">
<rect x="22" width="180" height="180" fill="white"/>
<path d="M110.182 86.4597H102.621C97.3982 86.4597 93.1642 82.2258 93.1642 77.003C93.1642 71.7804 97.3981 67.5463 102.621 67.5463H110.182V86.4597Z" fill="#0093FF"/>
<g clip-path="url(#clip0)">
<path fill-rule="evenodd" clip-rule="evenodd" d="M102.621 88.6618H110.182C111.398 88.6618 112.384 87.6758 112.384 86.4597V67.5461C112.384 66.33 111.398 65.3437 110.182 65.3437H102.621C96.1923 65.3437 90.9619 70.5738 90.9619 77.0027C90.9619 83.4316 96.1922 88.6618 102.621 88.6618ZM95.3666 77.0026C95.3666 73.0025 98.6207 69.7483 102.621 69.7483V69.7481H107.98V84.2569H102.621C98.6209 84.2569 95.3666 81.0028 95.3666 77.0026Z" fill="#2D527C"/>
<path fill-rule="evenodd" clip-rule="evenodd" d="M102.536 88.6618H119.323C125.752 88.6618 130.982 83.4313 130.982 77.0027C130.982 70.5741 125.752 65.3437 119.323 65.3437H102.536C96.1075 65.3437 90.877 70.5741 90.877 77.0027C90.877 83.4313 96.1073 88.6618 102.536 88.6618ZM95.2817 77.0026C95.2817 73.0025 98.5359 69.7483 102.536 69.7483H119.323C123.323 69.7483 126.577 73.0024 126.577 77.0026C126.577 81.0026 123.323 84.2569 119.323 84.2569H102.536C98.536 84.2569 95.2817 81.0028 95.2817 77.0026Z" fill="#2D527C"/>
<path d="M131.97 102H89.8893C84.4893 102 80.0963 97.607 80.0963 92.207V63.3414C80.0963 58.2737 83.9658 54.0928 88.9053 53.5975V52.4488C88.9053 51.2327 89.8913 50.2464 91.1077 50.2464C92.324 50.2464 93.31 51.2327 93.31 52.4488V55.7507C93.31 56.9668 92.324 57.9531 91.1077 57.9531H89.8893C86.918 57.9531 84.501 60.3702 84.501 63.3414V92.2069C84.501 95.1778 86.9181 97.5951 89.8893 97.5951H131.97C134.941 97.5951 137.358 95.1778 137.358 92.2069V80.2064C137.358 78.9903 138.344 78.0041 139.561 78.0041C140.777 78.0041 141.763 78.9903 141.763 80.2064V92.2069C141.763 97.607 137.37 102 131.97 102Z" fill="#2D527C"/>
<path d="M139.561 70.0654C138.344 70.0654 137.358 69.0791 137.358 67.863V63.3414C137.358 60.3704 134.941 57.9531 131.97 57.9531H130.752C129.535 57.9531 128.549 56.9668 128.549 55.7507V52.4488C128.549 51.2327 129.535 50.2464 130.752 50.2464C131.968 50.2464 132.954 51.2327 132.954 52.4488V53.5975C137.893 54.0928 141.763 58.2738 141.763 63.3414V67.863C141.763 69.0793 140.777 70.0654 139.561 70.0654Z" fill="#2D527C"/>
</g>
<path d="M132.183 43.8571H89.6761C85.9054 43.8571 82.8487 40.8004 82.8487 37.0298C82.8487 33.2591 85.9054 30.2024 89.6761 30.2024H132.183C135.954 30.2024 139.011 33.2591 139.011 37.0298C139.01 40.8004 135.954 43.8571 132.183 43.8571Z" fill="#13BA8E"/>
<path fill-rule="evenodd" clip-rule="evenodd" d="M89.6761 46.0595H132.183C137.162 46.0595 141.213 42.0087 141.213 37.0297C141.213 32.0508 137.162 28 132.183 28H89.6761C84.6971 28 80.6464 32.0508 80.6464 37.0297C80.6464 42.0087 84.6971 46.0595 89.6761 46.0595ZM85.0511 37.0297C85.0511 34.4796 87.1257 32.4047 89.6761 32.4047H132.183C134.734 32.4047 136.808 34.4796 136.808 37.0297C136.808 39.5798 134.734 41.6547 132.183 41.6547H89.6761C87.1257 41.6547 85.0511 39.5798 85.0511 37.0297Z" fill="#2D527C"/>
<path d="M52.9209 143.349H47.5508V149H45.8633V136.203H53.791V137.592H47.5508V141.969H52.9209V143.349ZM57.3242 149H55.6982V139.49H57.3242V149ZM55.5664 136.968C55.5664 136.704 55.6455 136.481 55.8037 136.3C55.9678 136.118 56.208 136.027 56.5244 136.027C56.8408 136.027 57.0811 136.118 57.2451 136.3C57.4092 136.481 57.4912 136.704 57.4912 136.968C57.4912 137.231 57.4092 137.451 57.2451 137.627C57.0811 137.803 56.8408 137.891 56.5244 137.891C56.208 137.891 55.9678 137.803 55.8037 137.627C55.6455 137.451 55.5664 137.231 55.5664 136.968ZM61.4727 139.49L61.5254 140.686C62.252 139.771 63.2012 139.314 64.373 139.314C66.3828 139.314 67.3965 140.448 67.4141 142.716V149H65.7881V142.707C65.7822 142.021 65.624 141.515 65.3135 141.187C65.0088 140.858 64.5312 140.694 63.8809 140.694C63.3535 140.694 62.8906 140.835 62.4922 141.116C62.0938 141.397 61.7832 141.767 61.5605 142.224V149H59.9346V139.49H61.4727ZM69.4707 144.166C69.4707 142.707 69.8164 141.535 70.5078 140.65C71.1992 139.76 72.1045 139.314 73.2236 139.314C74.3369 139.314 75.2188 139.695 75.8691 140.457V135.5H77.4951V149H76.001L75.9219 147.98C75.2715 148.777 74.3662 149.176 73.2061 149.176C72.1045 149.176 71.2051 148.725 70.5078 147.822C69.8164 146.92 69.4707 145.742 69.4707 144.289V144.166ZM71.0967 144.351C71.0967 145.429 71.3193 146.272 71.7646 146.882C72.21 147.491 72.8252 147.796 73.6104 147.796C74.6416 147.796 75.3945 147.333 75.8691 146.407V142.039C75.3828 141.143 74.6357 140.694 73.6279 140.694C72.8311 140.694 72.21 141.002 71.7646 141.617C71.3193 142.232 71.0967 143.144 71.0967 144.351ZM86.4336 143.99V149H84.7461V136.203H89.4658C90.8662 136.203 91.9619 136.561 92.7529 137.275C93.5498 137.99 93.9482 138.937 93.9482 140.114C93.9482 141.356 93.5586 142.314 92.7793 142.988C92.0059 143.656 90.8955 143.99 89.4482 143.99H86.4336ZM86.4336 142.61H89.4658C90.3682 142.61 91.0596 142.399 91.54 141.978C92.0205 141.55 92.2607 140.935 92.2607 140.132C92.2607 139.37 92.0205 138.761 91.54 138.304C91.0596 137.847 90.4004 137.609 89.5625 137.592H86.4336V142.61ZM97.4727 140.642C98.1934 139.757 99.1309 139.314 100.285 139.314C102.295 139.314 103.309 140.448 103.326 142.716V149H101.7V142.707C101.694 142.021 101.536 141.515 101.226 141.187C100.921 140.858 100.443 140.694 99.793 140.694C99.2656 140.694 98.8027 140.835 98.4043 141.116C98.0059 141.397 97.6953 141.767 97.4727 142.224V149H95.8467V135.5H97.4727V140.642ZM111.632 149C111.538 148.812 111.462 148.479 111.403 147.998C110.647 148.783 109.745 149.176 108.696 149.176C107.759 149.176 106.988 148.912 106.385 148.385C105.787 147.852 105.488 147.178 105.488 146.363C105.488 145.373 105.863 144.605 106.613 144.061C107.369 143.51 108.43 143.234 109.795 143.234H111.377V142.487C111.377 141.919 111.207 141.468 110.867 141.134C110.527 140.794 110.026 140.624 109.364 140.624C108.784 140.624 108.298 140.771 107.905 141.063C107.513 141.356 107.316 141.711 107.316 142.127H105.682C105.682 141.652 105.849 141.195 106.183 140.756C106.522 140.311 106.979 139.959 107.554 139.701C108.134 139.443 108.77 139.314 109.461 139.314C110.557 139.314 111.415 139.59 112.036 140.141C112.657 140.686 112.979 141.438 113.003 142.399V146.776C113.003 147.649 113.114 148.344 113.337 148.859V149H111.632ZM108.934 147.761C109.443 147.761 109.927 147.629 110.384 147.365C110.841 147.102 111.172 146.759 111.377 146.337V144.386H110.103C108.11 144.386 107.114 144.969 107.114 146.135C107.114 146.645 107.284 147.043 107.624 147.33C107.964 147.617 108.4 147.761 108.934 147.761ZM120.148 140.949C119.902 140.908 119.636 140.888 119.349 140.888C118.282 140.888 117.559 141.342 117.178 142.25V149H115.552V139.49H117.134L117.16 140.589C117.693 139.739 118.449 139.314 119.428 139.314C119.744 139.314 119.984 139.355 120.148 139.438V140.949ZM123.181 139.49L123.225 140.545C123.922 139.725 124.862 139.314 126.046 139.314C127.376 139.314 128.281 139.824 128.762 140.844C129.078 140.387 129.488 140.018 129.992 139.736C130.502 139.455 131.103 139.314 131.794 139.314C133.88 139.314 134.94 140.419 134.976 142.628V149H133.35V142.725C133.35 142.045 133.194 141.538 132.884 141.204C132.573 140.864 132.052 140.694 131.319 140.694C130.716 140.694 130.215 140.876 129.816 141.239C129.418 141.597 129.187 142.08 129.122 142.689V149H127.487V142.769C127.487 141.386 126.811 140.694 125.457 140.694C124.391 140.694 123.661 141.148 123.269 142.057V149H121.643V139.49H123.181ZM143.308 149C143.214 148.812 143.138 148.479 143.079 147.998C142.323 148.783 141.421 149.176 140.372 149.176C139.435 149.176 138.664 148.912 138.061 148.385C137.463 147.852 137.164 147.178 137.164 146.363C137.164 145.373 137.539 144.605 138.289 144.061C139.045 143.51 140.105 143.234 141.471 143.234H143.053V142.487C143.053 141.919 142.883 141.468 142.543 141.134C142.203 140.794 141.702 140.624 141.04 140.624C140.46 140.624 139.974 140.771 139.581 141.063C139.188 141.356 138.992 141.711 138.992 142.127H137.357C137.357 141.652 137.524 141.195 137.858 140.756C138.198 140.311 138.655 139.959 139.229 139.701C139.81 139.443 140.445 139.314 141.137 139.314C142.232 139.314 143.091 139.59 143.712 140.141C144.333 140.686 144.655 141.438 144.679 142.399V146.776C144.679 147.649 144.79 148.344 145.013 148.859V149H143.308ZM140.609 147.761C141.119 147.761 141.603 147.629 142.06 147.365C142.517 147.102 142.848 146.759 143.053 146.337V144.386H141.778C139.786 144.386 138.79 144.969 138.79 146.135C138.79 146.645 138.96 147.043 139.3 147.33C139.64 147.617 140.076 147.761 140.609 147.761ZM151.042 147.849C151.622 147.849 152.129 147.673 152.562 147.321C152.996 146.97 153.236 146.53 153.283 146.003H154.821C154.792 146.548 154.604 147.066 154.259 147.559C153.913 148.051 153.45 148.443 152.87 148.736C152.296 149.029 151.687 149.176 151.042 149.176C149.747 149.176 148.716 148.745 147.948 147.884C147.187 147.017 146.806 145.833 146.806 144.333V144.061C146.806 143.135 146.976 142.312 147.315 141.591C147.655 140.87 148.142 140.311 148.774 139.912C149.413 139.514 150.166 139.314 151.033 139.314C152.1 139.314 152.984 139.634 153.688 140.272C154.396 140.911 154.774 141.74 154.821 142.76H153.283C153.236 142.145 153.002 141.641 152.58 141.248C152.164 140.85 151.648 140.65 151.033 140.65C150.207 140.65 149.565 140.949 149.108 141.547C148.657 142.139 148.432 142.997 148.432 144.122V144.43C148.432 145.525 148.657 146.369 149.108 146.961C149.56 147.553 150.204 147.849 151.042 147.849ZM158.416 149H156.79V139.49H158.416V149ZM156.658 136.968C156.658 136.704 156.737 136.481 156.896 136.3C157.06 136.118 157.3 136.027 157.616 136.027C157.933 136.027 158.173 136.118 158.337 136.3C158.501 136.481 158.583 136.704 158.583 136.968C158.583 137.231 158.501 137.451 158.337 137.627C158.173 137.803 157.933 137.891 157.616 137.891C157.3 137.891 157.06 137.803 156.896 137.627C156.737 137.451 156.658 137.231 156.658 136.968ZM164.973 149.176C163.684 149.176 162.635 148.754 161.826 147.91C161.018 147.061 160.613 145.927 160.613 144.509V144.21C160.613 143.267 160.792 142.426 161.149 141.688C161.513 140.943 162.017 140.363 162.661 139.947C163.312 139.525 164.015 139.314 164.771 139.314C166.007 139.314 166.968 139.722 167.653 140.536C168.339 141.351 168.682 142.517 168.682 144.034V144.711H162.239C162.263 145.648 162.535 146.407 163.057 146.987C163.584 147.562 164.252 147.849 165.061 147.849C165.635 147.849 166.121 147.731 166.52 147.497C166.918 147.263 167.267 146.952 167.565 146.565L168.559 147.339C167.762 148.563 166.566 149.176 164.973 149.176ZM164.771 140.65C164.114 140.65 163.563 140.891 163.118 141.371C162.673 141.846 162.397 142.514 162.292 143.375H167.056V143.252C167.009 142.426 166.786 141.787 166.388 141.336C165.989 140.879 165.45 140.65 164.771 140.65ZM176.108 146.478C176.108 146.038 175.941 145.698 175.607 145.458C175.279 145.212 174.702 145.001 173.876 144.825C173.056 144.649 172.402 144.438 171.916 144.192C171.436 143.946 171.078 143.653 170.844 143.313C170.615 142.974 170.501 142.569 170.501 142.101C170.501 141.321 170.829 140.662 171.485 140.123C172.147 139.584 172.991 139.314 174.017 139.314C175.095 139.314 175.968 139.593 176.636 140.149C177.31 140.706 177.646 141.418 177.646 142.285H176.012C176.012 141.84 175.821 141.456 175.44 141.134C175.065 140.812 174.591 140.65 174.017 140.65C173.425 140.65 172.962 140.779 172.628 141.037C172.294 141.295 172.127 141.632 172.127 142.048C172.127 142.44 172.282 142.736 172.593 142.936C172.903 143.135 173.463 143.325 174.271 143.507C175.086 143.688 175.745 143.905 176.249 144.157C176.753 144.409 177.125 144.714 177.365 145.071C177.611 145.423 177.734 145.854 177.734 146.363C177.734 147.213 177.395 147.896 176.715 148.411C176.035 148.921 175.153 149.176 174.069 149.176C173.308 149.176 172.634 149.041 172.048 148.771C171.462 148.502 171.002 148.127 170.668 147.646C170.34 147.16 170.176 146.636 170.176 146.073H171.802C171.831 146.618 172.048 147.052 172.452 147.374C172.862 147.69 173.401 147.849 174.069 147.849C174.685 147.849 175.177 147.726 175.546 147.479C175.921 147.228 176.108 146.894 176.108 146.478Z" fill="#373737"/>
</g>
<defs>
<filter id="filter0_d" x="0" y="-11" width="224" height="224" filterUnits="userSpaceOnUse" color-interpolation-filters="sRGB">
<feFlood flood-opacity="0" result="BackgroundImageFix"/>
<feColorMatrix in="SourceAlpha" type="matrix" values="0 0 0 0 0 0 0 0 0 0 0 0 0 0 0 0 0 0 127 0"/>
<feOffset dy="11"/>
<feGaussianBlur stdDeviation="11"/>
<feColorMatrix type="matrix" values="0 0 0 0 0 0 0 0 0 0 0 0 0 0 0 0 0 0 0.344061 0"/>
<feBlend mode="normal" in2="BackgroundImageFix" result="effect1_dropShadow"/>
<feBlend mode="normal" in="SourceGraphic" in2="effect1_dropShadow" result="shape"/>
</filter>
<clipPath id="clip0">
<rect width="62" height="52" fill="white" transform="translate(80 50.1133)"/>
</clipPath>
</defs>
</svg>
