<svg width="202" height="180" viewBox="0 0 202 180" fill="none" xmlns="http://www.w3.org/2000/svg">
<g filter="url(#filter0_d)">
<rect width="180" height="180" rx="5" fill="white"/>
<path d="M99.9927 93.4849H79.6305V81.0466C79.6305 78.4963 81.6981 76.4288 84.2483 76.4288H95.3747C97.925 76.4288 99.9925 78.4963 99.9925 81.0466V93.4849H99.9927Z" fill="#0093FF"/>
<g clip-path="url(#clip0)">
<path fill-rule="evenodd" clip-rule="evenodd" d="M79.6303 95.6363H99.9925C101.181 95.6363 102.144 94.6732 102.144 93.4849V81.0466C102.144 77.3141 99.1071 74.2773 95.3747 74.2773H84.2481C80.5155 74.2773 77.4789 77.3138 77.4789 81.0466V93.4849C77.4789 94.6732 78.4421 95.6363 79.6303 95.6363ZM97.8412 91.3335H81.7819V81.0466C81.7819 79.6866 82.8883 78.5802 84.2483 78.5802H95.3748C96.7348 78.5802 97.8412 79.6866 97.8412 81.0466V91.3335Z" fill="#2D527C"/>
<path d="M69.3735 95.6364H56.2504C55.0622 95.6364 54.099 94.6732 54.099 93.485V73.0464C54.099 68.6573 57.6699 65.0865 62.0589 65.0865C63.2472 65.0865 64.2103 66.0497 64.2103 67.2379C64.2103 68.4262 63.2472 69.3893 62.0589 69.3893C60.0424 69.3893 58.4017 71.0297 58.4017 73.0465V91.3337H69.3734C70.5616 91.3337 71.5248 92.2968 71.5248 93.4851C71.5248 94.6733 70.5618 95.6364 69.3735 95.6364Z" fill="#2D527C"/>
<path d="M123.373 95.6363H110.25C109.061 95.6363 108.098 94.6732 108.098 93.4849C108.098 92.2967 109.061 91.3335 110.25 91.3335H121.221V73.0464C121.221 71.0299 119.581 69.3891 117.564 69.3891C116.376 69.3891 115.413 68.426 115.413 67.2377C115.413 66.0495 116.376 65.0863 117.564 65.0863C121.953 65.0863 125.524 68.6572 125.524 73.0462V93.4848C125.524 94.6732 124.561 95.6363 123.373 95.6363Z" fill="#2D527C"/>
<path d="M101.356 68.5295H78.2668C77.0785 68.5295 76.1154 67.5664 76.1154 66.3781C76.1154 65.1899 77.0785 64.2267 78.2668 64.2267H101.356C102.544 64.2267 103.508 65.1899 103.508 66.3781C103.508 67.5664 102.544 68.5295 101.356 68.5295Z" fill="#2D527C"/>
<path d="M101.356 59.4936H78.2668C77.0785 59.4936 76.1154 58.5304 76.1154 57.3422C76.1154 56.1539 77.0785 55.1907 78.2668 55.1907H101.356C102.544 55.1907 103.508 56.1539 103.508 57.3422C103.508 58.5304 102.544 59.4936 101.356 59.4936Z" fill="#2D527C"/>
<path fill-rule="evenodd" clip-rule="evenodd" d="M69.3735 95.6363H110.25C111.438 95.6363 112.401 94.6732 112.401 93.4852V48.1774C112.401 43.1732 108.491 39.0077 103.5 38.694C103.455 38.691 103.41 38.6897 103.365 38.6897H76.2582C76.2132 38.6897 76.1683 38.6913 76.1233 38.694C71.1318 39.0077 67.222 43.1733 67.222 48.1774V93.4849C67.222 94.6732 68.1852 95.6363 69.3735 95.6363ZM108.098 91.3335H71.5249V48.1774C71.5249 45.4598 73.6311 43.1942 76.3315 42.9925H103.291C105.992 43.1942 108.098 45.4598 108.098 48.1774V91.3335Z" fill="#2D527C"/>
</g>
<path d="M89.8116 24.1514C87.255 24.1514 85.1824 26.2239 85.1824 28.7806V32.4154H81.5476C78.9911 32.4154 76.9185 34.4878 76.9185 37.0446C76.9185 39.6011 78.9909 41.6737 81.5476 41.6737H85.1824V45.3085C85.1824 47.8651 87.2549 49.9377 89.8116 49.9377C92.3681 49.9377 94.4407 47.8652 94.4407 45.3085V41.6737H98.0755C100.632 41.6737 102.705 39.6013 102.705 37.0446C102.705 34.488 100.632 32.4154 98.0755 32.4154H94.4407V28.7806C94.4406 26.2239 92.3681 24.1514 89.8116 24.1514Z" fill="#13BA8E"/>
<path fill-rule="evenodd" clip-rule="evenodd" d="M83.031 45.3081C83.031 49.047 86.0729 52.0887 89.8116 52.0887C93.5504 52.0887 96.5921 49.047 96.5922 45.3085V43.8251H98.0756C101.815 43.8251 104.856 40.7835 104.856 37.0445C104.856 33.3056 101.814 30.264 98.0756 30.264H96.5922V28.7806C96.5922 25.0417 93.5505 22 89.8116 22C86.0727 22 83.031 25.0417 83.031 28.7802V30.2635H81.5477C77.8088 30.2635 74.7671 33.3052 74.7671 37.0441C74.7671 40.783 77.8089 43.8247 81.5477 43.8247H83.031V45.3081ZM79.0699 37.0445C79.0699 35.6784 80.1815 34.5668 81.5477 34.5668H85.1825C86.3707 34.5668 87.3339 33.6036 87.3339 32.4154V28.7806C87.3339 27.4144 88.4455 26.3028 89.8116 26.3028C91.1778 26.3028 92.2894 27.4144 92.2894 28.7806V32.4151C92.2894 33.6033 93.2526 34.5665 94.4408 34.5665H98.0756C99.4417 34.5665 100.553 35.6781 100.553 37.0443C100.553 38.4104 99.4417 39.522 98.0756 39.522H94.4408C93.2526 39.522 92.2894 40.4852 92.2894 41.6734V45.3085C92.2894 46.6747 91.1778 47.7862 89.8116 47.7862C88.4455 47.7862 87.3339 46.6747 87.3339 45.3085V41.6737C87.3339 40.4855 86.3707 39.5223 85.1825 39.5223H81.5477C80.1815 39.5223 79.0699 38.4107 79.0699 37.0445Z" fill="#2D527C"/>
<path d="M32.9502 127.349H27.5801V133H25.8926V120.203H33.8203V121.592H27.5801V125.969H32.9502V127.349ZM37.3535 133H35.7275V123.49H37.3535V133ZM35.5957 120.968C35.5957 120.704 35.6748 120.481 35.833 120.3C35.9971 120.118 36.2373 120.027 36.5537 120.027C36.8701 120.027 37.1104 120.118 37.2744 120.3C37.4385 120.481 37.5205 120.704 37.5205 120.968C37.5205 121.231 37.4385 121.451 37.2744 121.627C37.1104 121.803 36.8701 121.891 36.5537 121.891C36.2373 121.891 35.9971 121.803 35.833 121.627C35.6748 121.451 35.5957 121.231 35.5957 120.968ZM41.502 123.49L41.5547 124.686C42.2812 123.771 43.2305 123.314 44.4023 123.314C46.4121 123.314 47.4258 124.448 47.4434 126.716V133H45.8174V126.707C45.8115 126.021 45.6533 125.515 45.3428 125.187C45.0381 124.858 44.5605 124.694 43.9102 124.694C43.3828 124.694 42.9199 124.835 42.5215 125.116C42.123 125.397 41.8125 125.767 41.5898 126.224V133H39.9639V123.49H41.502ZM49.5 128.166C49.5 126.707 49.8457 125.535 50.5371 124.65C51.2285 123.76 52.1338 123.314 53.2529 123.314C54.3662 123.314 55.248 123.695 55.8984 124.457V119.5H57.5244V133H56.0303L55.9512 131.98C55.3008 132.777 54.3955 133.176 53.2354 133.176C52.1338 133.176 51.2344 132.725 50.5371 131.822C49.8457 130.92 49.5 129.742 49.5 128.289V128.166ZM51.126 128.351C51.126 129.429 51.3486 130.272 51.7939 130.882C52.2393 131.491 52.8545 131.796 53.6396 131.796C54.6709 131.796 55.4238 131.333 55.8984 130.407V126.039C55.4121 125.143 54.665 124.694 53.6572 124.694C52.8604 124.694 52.2393 125.002 51.7939 125.617C51.3486 126.232 51.126 127.144 51.126 128.351ZM74.1885 128.939C74.0303 130.293 73.5293 131.339 72.6855 132.077C71.8477 132.81 70.7314 133.176 69.3369 133.176C67.8252 133.176 66.6123 132.634 65.6982 131.55C64.79 130.466 64.3359 129.016 64.3359 127.199V125.969C64.3359 124.779 64.5469 123.733 64.9688 122.831C65.3965 121.929 66 121.237 66.7793 120.757C67.5586 120.271 68.4609 120.027 69.4863 120.027C70.8457 120.027 71.9355 120.408 72.7559 121.17C73.5762 121.926 74.0537 122.975 74.1885 124.316H72.4922C72.3457 123.297 72.0264 122.559 71.5342 122.102C71.0479 121.645 70.3652 121.416 69.4863 121.416C68.4082 121.416 67.5615 121.814 66.9463 122.611C66.3369 123.408 66.0322 124.542 66.0322 126.013V127.252C66.0322 128.641 66.3223 129.745 66.9023 130.565C67.4824 131.386 68.2939 131.796 69.3369 131.796C70.2744 131.796 70.9922 131.585 71.4902 131.163C71.9941 130.735 72.3281 129.994 72.4922 128.939H74.1885ZM78.0117 133H76.3857V119.5H78.0117V133ZM82.3887 133H80.7627V123.49H82.3887V133ZM80.6309 120.968C80.6309 120.704 80.71 120.481 80.8682 120.3C81.0322 120.118 81.2725 120.027 81.5889 120.027C81.9053 120.027 82.1455 120.118 82.3096 120.3C82.4736 120.481 82.5557 120.704 82.5557 120.968C82.5557 121.231 82.4736 121.451 82.3096 121.627C82.1455 121.803 81.9053 121.891 81.5889 121.891C81.2725 121.891 81.0322 121.803 80.8682 121.627C80.71 121.451 80.6309 121.231 80.6309 120.968ZM86.5371 123.49L86.5898 124.686C87.3164 123.771 88.2656 123.314 89.4375 123.314C91.4473 123.314 92.4609 124.448 92.4785 126.716V133H90.8525V126.707C90.8467 126.021 90.6885 125.515 90.3779 125.187C90.0732 124.858 89.5957 124.694 88.9453 124.694C88.418 124.694 87.9551 124.835 87.5566 125.116C87.1582 125.397 86.8477 125.767 86.625 126.224V133H84.999V123.49H86.5371ZM96.6973 133H95.0713V123.49H96.6973V133ZM94.9395 120.968C94.9395 120.704 95.0186 120.481 95.1768 120.3C95.3408 120.118 95.5811 120.027 95.8975 120.027C96.2139 120.027 96.4541 120.118 96.6182 120.3C96.7822 120.481 96.8643 120.704 96.8643 120.968C96.8643 121.231 96.7822 121.451 96.6182 121.627C96.4541 121.803 96.2139 121.891 95.8975 121.891C95.5811 121.891 95.3408 121.803 95.1768 121.627C95.0186 121.451 94.9395 121.231 94.9395 120.968ZM103.122 131.849C103.702 131.849 104.209 131.673 104.643 131.321C105.076 130.97 105.316 130.53 105.363 130.003H106.901C106.872 130.548 106.685 131.066 106.339 131.559C105.993 132.051 105.53 132.443 104.95 132.736C104.376 133.029 103.767 133.176 103.122 133.176C101.827 133.176 100.796 132.745 100.028 131.884C99.2666 131.017 98.8857 129.833 98.8857 128.333V128.061C98.8857 127.135 99.0557 126.312 99.3955 125.591C99.7354 124.87 100.222 124.311 100.854 123.912C101.493 123.514 102.246 123.314 103.113 123.314C104.18 123.314 105.064 123.634 105.768 124.272C106.477 124.911 106.854 125.74 106.901 126.76H105.363C105.316 126.145 105.082 125.641 104.66 125.248C104.244 124.85 103.729 124.65 103.113 124.65C102.287 124.65 101.646 124.949 101.188 125.547C100.737 126.139 100.512 126.997 100.512 128.122V128.43C100.512 129.525 100.737 130.369 101.188 130.961C101.64 131.553 102.284 131.849 103.122 131.849ZM114.267 130.478C114.267 130.038 114.1 129.698 113.766 129.458C113.438 129.212 112.86 129.001 112.034 128.825C111.214 128.649 110.561 128.438 110.074 128.192C109.594 127.946 109.236 127.653 109.002 127.313C108.773 126.974 108.659 126.569 108.659 126.101C108.659 125.321 108.987 124.662 109.644 124.123C110.306 123.584 111.149 123.314 112.175 123.314C113.253 123.314 114.126 123.593 114.794 124.149C115.468 124.706 115.805 125.418 115.805 126.285H114.17C114.17 125.84 113.979 125.456 113.599 125.134C113.224 124.812 112.749 124.65 112.175 124.65C111.583 124.65 111.12 124.779 110.786 125.037C110.452 125.295 110.285 125.632 110.285 126.048C110.285 126.44 110.44 126.736 110.751 126.936C111.062 127.135 111.621 127.325 112.43 127.507C113.244 127.688 113.903 127.905 114.407 128.157C114.911 128.409 115.283 128.714 115.523 129.071C115.77 129.423 115.893 129.854 115.893 130.363C115.893 131.213 115.553 131.896 114.873 132.411C114.193 132.921 113.312 133.176 112.228 133.176C111.466 133.176 110.792 133.041 110.206 132.771C109.62 132.502 109.16 132.127 108.826 131.646C108.498 131.16 108.334 130.636 108.334 130.073H109.96C109.989 130.618 110.206 131.052 110.61 131.374C111.021 131.69 111.56 131.849 112.228 131.849C112.843 131.849 113.335 131.726 113.704 131.479C114.079 131.228 114.267 130.894 114.267 130.478ZM128.347 133C128.253 132.812 128.177 132.479 128.118 131.998C127.362 132.783 126.46 133.176 125.411 133.176C124.474 133.176 123.703 132.912 123.1 132.385C122.502 131.852 122.203 131.178 122.203 130.363C122.203 129.373 122.578 128.605 123.328 128.061C124.084 127.51 125.145 127.234 126.51 127.234H128.092V126.487C128.092 125.919 127.922 125.468 127.582 125.134C127.242 124.794 126.741 124.624 126.079 124.624C125.499 124.624 125.013 124.771 124.62 125.063C124.228 125.356 124.031 125.711 124.031 126.127H122.396C122.396 125.652 122.563 125.195 122.897 124.756C123.237 124.311 123.694 123.959 124.269 123.701C124.849 123.443 125.484 123.314 126.176 123.314C127.271 123.314 128.13 123.59 128.751 124.141C129.372 124.686 129.694 125.438 129.718 126.399V130.776C129.718 131.649 129.829 132.344 130.052 132.859V133H128.347ZM125.648 131.761C126.158 131.761 126.642 131.629 127.099 131.365C127.556 131.102 127.887 130.759 128.092 130.337V128.386H126.817C124.825 128.386 123.829 128.969 123.829 130.135C123.829 130.645 123.999 131.043 124.339 131.33C124.679 131.617 125.115 131.761 125.648 131.761ZM133.805 123.49L133.857 124.686C134.584 123.771 135.533 123.314 136.705 123.314C138.715 123.314 139.729 124.448 139.746 126.716V133H138.12V126.707C138.114 126.021 137.956 125.515 137.646 125.187C137.341 124.858 136.863 124.694 136.213 124.694C135.686 124.694 135.223 124.835 134.824 125.116C134.426 125.397 134.115 125.767 133.893 126.224V133H132.267V123.49H133.805ZM141.803 128.166C141.803 126.707 142.148 125.535 142.84 124.65C143.531 123.76 144.437 123.314 145.556 123.314C146.669 123.314 147.551 123.695 148.201 124.457V119.5H149.827V133H148.333L148.254 131.98C147.604 132.777 146.698 133.176 145.538 133.176C144.437 133.176 143.537 132.725 142.84 131.822C142.148 130.92 141.803 129.742 141.803 128.289V128.166ZM143.429 128.351C143.429 129.429 143.651 130.272 144.097 130.882C144.542 131.491 145.157 131.796 145.942 131.796C146.974 131.796 147.727 131.333 148.201 130.407V126.039C147.715 125.143 146.968 124.694 145.96 124.694C145.163 124.694 144.542 125.002 144.097 125.617C143.651 126.232 143.429 127.144 143.429 128.351ZM63.2197 154H61.5234V148.085H55.0723V154H53.3848V141.203H55.0723V146.705H61.5234V141.203H63.2197V154ZM65.5312 149.157C65.5312 148.226 65.7129 147.388 66.0762 146.644C66.4453 145.899 66.9551 145.325 67.6055 144.921C68.2617 144.517 69.0088 144.314 69.8467 144.314C71.1416 144.314 72.1875 144.763 72.9844 145.659C73.7871 146.556 74.1885 147.748 74.1885 149.236V149.351C74.1885 150.276 74.0098 151.108 73.6523 151.847C73.3008 152.579 72.7939 153.15 72.1318 153.561C71.4756 153.971 70.7197 154.176 69.8643 154.176C68.5752 154.176 67.5293 153.728 66.7266 152.831C65.9297 151.935 65.5312 150.748 65.5312 149.271V149.157ZM67.166 149.351C67.166 150.405 67.4092 151.252 67.8955 151.891C68.3877 152.529 69.0439 152.849 69.8643 152.849C70.6904 152.849 71.3467 152.526 71.833 151.882C72.3193 151.231 72.5625 150.323 72.5625 149.157C72.5625 148.114 72.3135 147.271 71.8154 146.626C71.3232 145.976 70.667 145.65 69.8467 145.65C69.0439 145.65 68.3965 145.97 67.9043 146.608C67.4121 147.247 67.166 148.161 67.166 149.351ZM81.7646 151.478C81.7646 151.038 81.5977 150.698 81.2637 150.458C80.9355 150.212 80.3584 150.001 79.5322 149.825C78.7119 149.649 78.0586 149.438 77.5723 149.192C77.0918 148.946 76.7344 148.653 76.5 148.313C76.2715 147.974 76.1572 147.569 76.1572 147.101C76.1572 146.321 76.4854 145.662 77.1416 145.123C77.8037 144.584 78.6475 144.314 79.6729 144.314C80.751 144.314 81.624 144.593 82.292 145.149C82.9658 145.706 83.3027 146.418 83.3027 147.285H81.668C81.668 146.84 81.4775 146.456 81.0967 146.134C80.7217 145.812 80.2471 145.65 79.6729 145.65C79.0811 145.65 78.6182 145.779 78.2842 146.037C77.9502 146.295 77.7832 146.632 77.7832 147.048C77.7832 147.44 77.9385 147.736 78.249 147.936C78.5596 148.135 79.1191 148.325 79.9277 148.507C80.7422 148.688 81.4014 148.905 81.9053 149.157C82.4092 149.409 82.7812 149.714 83.0215 150.071C83.2676 150.423 83.3906 150.854 83.3906 151.363C83.3906 152.213 83.0508 152.896 82.3711 153.411C81.6914 153.921 80.8096 154.176 79.7256 154.176C78.9639 154.176 78.29 154.041 77.7041 153.771C77.1182 153.502 76.6582 153.127 76.3242 152.646C75.9961 152.16 75.832 151.636 75.832 151.073H77.458C77.4873 151.618 77.7041 152.052 78.1084 152.374C78.5186 152.69 79.0576 152.849 79.7256 152.849C80.3408 152.849 80.833 152.726 81.2021 152.479C81.5771 152.228 81.7646 151.894 81.7646 151.478ZM93.542 149.351C93.542 150.798 93.2109 151.964 92.5488 152.849C91.8867 153.733 90.9902 154.176 89.8594 154.176C88.7051 154.176 87.7969 153.81 87.1348 153.077V157.656H85.5088V144.49H86.9941L87.0732 145.545C87.7354 144.725 88.6553 144.314 89.833 144.314C90.9756 144.314 91.8779 144.745 92.54 145.606C93.208 146.468 93.542 147.666 93.542 149.201V149.351ZM91.916 149.166C91.916 148.094 91.6875 147.247 91.2305 146.626C90.7734 146.005 90.1465 145.694 89.3496 145.694C88.3652 145.694 87.627 146.131 87.1348 147.004V151.548C87.6211 152.415 88.3652 152.849 89.3672 152.849C90.1465 152.849 90.7646 152.541 91.2217 151.926C91.6846 151.305 91.916 150.385 91.916 149.166ZM97.3828 154H95.7568V144.49H97.3828V154ZM95.625 141.968C95.625 141.704 95.7041 141.481 95.8623 141.3C96.0264 141.118 96.2666 141.027 96.583 141.027C96.8994 141.027 97.1396 141.118 97.3037 141.3C97.4678 141.481 97.5498 141.704 97.5498 141.968C97.5498 142.231 97.4678 142.451 97.3037 142.627C97.1396 142.803 96.8994 142.891 96.583 142.891C96.2666 142.891 96.0264 142.803 95.8623 142.627C95.7041 142.451 95.625 142.231 95.625 141.968ZM102.199 142.188V144.49H103.975V145.747H102.199V151.645C102.199 152.025 102.278 152.312 102.437 152.506C102.595 152.693 102.864 152.787 103.245 152.787C103.433 152.787 103.69 152.752 104.019 152.682V154C103.591 154.117 103.175 154.176 102.771 154.176C102.044 154.176 101.496 153.956 101.127 153.517C100.758 153.077 100.573 152.453 100.573 151.645V145.747H98.8418V144.49H100.573V142.188H102.199ZM111.753 154C111.659 153.812 111.583 153.479 111.524 152.998C110.769 153.783 109.866 154.176 108.817 154.176C107.88 154.176 107.109 153.912 106.506 153.385C105.908 152.852 105.609 152.178 105.609 151.363C105.609 150.373 105.984 149.605 106.734 149.061C107.49 148.51 108.551 148.234 109.916 148.234H111.498V147.487C111.498 146.919 111.328 146.468 110.988 146.134C110.648 145.794 110.147 145.624 109.485 145.624C108.905 145.624 108.419 145.771 108.026 146.063C107.634 146.356 107.438 146.711 107.438 147.127H105.803C105.803 146.652 105.97 146.195 106.304 145.756C106.644 145.311 107.101 144.959 107.675 144.701C108.255 144.443 108.891 144.314 109.582 144.314C110.678 144.314 111.536 144.59 112.157 145.141C112.778 145.686 113.101 146.438 113.124 147.399V151.776C113.124 152.649 113.235 153.344 113.458 153.859V154H111.753ZM109.055 152.761C109.564 152.761 110.048 152.629 110.505 152.365C110.962 152.102 111.293 151.759 111.498 151.337V149.386H110.224C108.231 149.386 107.235 149.969 107.235 151.135C107.235 151.645 107.405 152.043 107.745 152.33C108.085 152.617 108.521 152.761 109.055 152.761ZM117.439 154H115.813V140.5H117.439V154ZM125.587 151.478C125.587 151.038 125.42 150.698 125.086 150.458C124.758 150.212 124.181 150.001 123.354 149.825C122.534 149.649 121.881 149.438 121.395 149.192C120.914 148.946 120.557 148.653 120.322 148.313C120.094 147.974 119.979 147.569 119.979 147.101C119.979 146.321 120.308 145.662 120.964 145.123C121.626 144.584 122.47 144.314 123.495 144.314C124.573 144.314 125.446 144.593 126.114 145.149C126.788 145.706 127.125 146.418 127.125 147.285H125.49C125.49 146.84 125.3 146.456 124.919 146.134C124.544 145.812 124.069 145.65 123.495 145.65C122.903 145.65 122.44 145.779 122.106 146.037C121.772 146.295 121.605 146.632 121.605 147.048C121.605 147.44 121.761 147.736 122.071 147.936C122.382 148.135 122.941 148.325 123.75 148.507C124.564 148.688 125.224 148.905 125.728 149.157C126.231 149.409 126.604 149.714 126.844 150.071C127.09 150.423 127.213 150.854 127.213 151.363C127.213 152.213 126.873 152.896 126.193 153.411C125.514 153.921 124.632 154.176 123.548 154.176C122.786 154.176 122.112 154.041 121.526 153.771C120.94 153.502 120.48 153.127 120.146 152.646C119.818 152.16 119.654 151.636 119.654 151.073H121.28C121.31 151.618 121.526 152.052 121.931 152.374C122.341 152.69 122.88 152.849 123.548 152.849C124.163 152.849 124.655 152.726 125.024 152.479C125.399 152.228 125.587 151.894 125.587 151.478Z" fill="#373737"/>
</g>
<defs>
<filter id="filter0_d" x="-22" y="-11" width="224" height="224" filterUnits="userSpaceOnUse" color-interpolation-filters="sRGB">
<feFlood flood-opacity="0" result="BackgroundImageFix"/>
<feColorMatrix in="SourceAlpha" type="matrix" values="0 0 0 0 0 0 0 0 0 0 0 0 0 0 0 0 0 0 127 0"/>
<feOffset dy="11"/>
<feGaussianBlur stdDeviation="11"/>
<feColorMatrix type="matrix" values="0 0 0 0 0 0 0 0 0 0 0 0 0 0 0 0 0 0 0.344061 0"/>
<feBlend mode="normal" in2="BackgroundImageFix" result="effect1_dropShadow"/>
<feBlend mode="normal" in="SourceGraphic" in2="effect1_dropShadow" result="shape"/>
</filter>
<clipPath id="clip0">
<rect width="72" height="57" fill="white" transform="translate(54 38.6832)"/>
</clipPath>
</defs>
</svg>
