<svg width="35" height="35" viewBox="0 0 35 35" fill="none" xmlns="http://www.w3.org/2000/svg">
<g clip-path="url(#clip0)">
<path d="M31.2024 35H3.66071C1.65354 35 0.0205688 33.367 0.0205688 31.3598V10.3994C0.0205688 8.39218 1.65354 6.75922 3.66071 6.75922H31.2024C33.2097 6.75922 34.8426 8.39218 34.8426 10.3994V11.5805C34.8426 12.1322 34.3952 12.5797 33.8434 12.5797C33.2916 12.5797 32.8442 12.1323 32.8442 11.5805V10.3994C32.8442 9.49407 32.1077 8.75757 31.2024 8.75757H3.66071C2.75542 8.75757 2.01892 9.49407 2.01892 10.3994V31.3598C2.01892 32.2651 2.75542 33.0016 3.66071 33.0016H31.2024C32.1076 33.0016 32.8441 32.2651 32.8441 31.3598L32.8442 16.6829C32.8442 16.1312 33.2916 15.6837 33.8434 15.6837C34.3952 15.6837 34.8426 16.1311 34.8426 16.6829L34.8426 31.3598C34.8424 33.367 33.2096 35 31.2024 35Z" fill="#2D527C"/>
<circle cx="17.4316" cy="20.8803" r="8.11973" fill="#13BA8E"/>
<g clip-path="url(#clip1)">
<path fill-rule="evenodd" clip-rule="evenodd" d="M8.31293 20.8797C8.31293 25.9078 12.4035 29.9984 17.4315 29.9984C22.4597 29.9984 26.5503 25.9077 26.5503 20.8797C26.5503 15.8515 22.4596 11.7609 17.4315 11.7609C12.4036 11.7609 8.31293 15.8516 8.31293 20.8797ZM10.3113 20.8797C10.3113 16.9535 13.5054 13.7593 17.4315 13.7593C21.3577 13.7593 24.5519 16.9534 24.5518 20.8797C24.5518 24.8058 21.3577 28 17.4315 28C13.5054 28 10.3113 24.8059 10.3113 20.8797Z" fill="#2D527C"/>
<path d="M17.4315 25.1095C16.8797 25.1095 16.4323 24.6621 16.4323 24.1103V17.6489C16.4323 17.0971 16.8797 16.6497 17.4315 16.6497C17.9834 16.6497 18.4307 17.0971 18.4307 17.6489V24.1103C18.4307 24.6621 17.9834 25.1095 17.4315 25.1095Z" fill="#2D527C"/>
<path d="M20.6623 21.8789H14.2009C13.649 21.8789 13.2017 21.4314 13.2017 20.8796C13.2017 20.3278 13.649 19.8804 14.2009 19.8804H20.6623C21.214 19.8804 21.6615 20.3278 21.6615 20.8796C21.6615 21.4314 21.2141 21.8789 20.6623 21.8789Z" fill="#2D527C"/>
<path d="M23.1888 8.60754C23.1881 8.60754 23.1875 8.60754 23.1867 8.60754C22.6348 8.60631 22.1884 8.15808 22.1896 7.60628L22.1986 3.31748C22.2001 2.97309 22.0681 2.65063 21.8271 2.40762C21.5862 2.16453 21.265 2.02993 20.9226 2.02843L13.9723 1.99849C13.2673 1.99199 12.6884 2.56771 12.6854 3.27435L12.6646 7.09003C12.6616 7.63998 12.2149 8.0837 11.6656 8.0837C11.6636 8.0837 11.6619 8.0837 11.6601 8.0837C11.1082 8.08069 10.6633 7.63096 10.6663 7.07902L10.6871 3.2645C10.6948 1.462 12.1646 0 13.9666 0C13.9713 0 13.9761 0 13.9808 0L20.9312 0.0300098C22.7396 0.0377344 24.2046 1.51532 24.1969 3.32384L24.1879 7.61038C24.1868 8.16149 23.7396 8.60754 23.1888 8.60754Z" fill="#2D527C"/>
<path fill-rule="evenodd" clip-rule="evenodd" d="M23.3107 8.52112H29.5377C30.0894 8.52112 30.5369 8.07378 30.5369 7.52191V6.25781C30.5369 4.72424 29.2894 3.47675 27.7559 3.47675H23.3107C22.7589 3.47675 22.3115 3.92423 22.3115 4.47595V7.52191C22.3115 8.07371 22.759 8.52112 23.3107 8.52112ZM28.5384 6.5227H24.3098V5.47516H27.7557C28.1873 5.47516 28.5384 5.82626 28.5384 6.25781V6.5227Z" fill="#2D527C"/>
<path fill-rule="evenodd" clip-rule="evenodd" d="M5.32532 8.52112H11.5523C12.1042 8.52112 12.5515 8.07378 12.5515 7.52191V4.47595C12.5515 3.92416 12.1042 3.47675 11.5523 3.47675H7.10718C5.57367 3.47675 4.32611 4.72424 4.32611 6.25781V7.52191C4.32611 8.07371 4.77345 8.52112 5.32532 8.52112ZM10.5531 6.5227H6.32453V6.25781C6.32453 5.82626 6.67562 5.47516 7.10718 5.47516H10.5531V6.5227Z" fill="#2D527C"/>
</g>
</g>
<defs>
<clipPath id="clip0">
<rect width="34.8633" height="35" fill="white"/>
</clipPath>
<clipPath id="clip1">
<rect width="26.25" height="30.0098" fill="white" transform="translate(4.30664)"/>
</clipPath>
</defs>
</svg>
