<svg width="35" height="35" viewBox="0 0 35 35" fill="none" xmlns="http://www.w3.org/2000/svg">
<g clip-path="url(#clip0)">
<path d="M21.8607 33.9774H12.1824V28.0654C12.1824 26.8532 13.1651 25.8705 14.3773 25.8705H19.6657C20.8779 25.8705 21.8606 26.8532 21.8606 28.0654V33.9774H21.8607Z" fill="#0093FF"/>
<g clip-path="url(#clip1)">
<path fill-rule="evenodd" clip-rule="evenodd" d="M12.1824 35H21.8607C22.4254 35 22.8832 34.5422 22.8833 33.9774V28.0654C22.8833 26.2913 21.4399 24.8479 19.6658 24.8479H14.3773C12.6031 24.8479 11.1598 26.2912 11.1598 28.0654V33.9774C11.1598 34.5422 11.6176 35 12.1824 35ZM20.8382 32.9548H13.205V28.0654C13.205 27.419 13.7309 26.8931 14.3773 26.8931H19.6659C20.3123 26.8931 20.8382 27.419 20.8382 28.0654V32.9548Z" fill="#2D527C"/>
<path d="M7.3071 35H1.06958C0.5048 35 0.0469971 34.5422 0.0469971 33.9774V24.2628C0.0469971 22.1766 1.74429 20.4794 3.83042 20.4794C4.3952 20.4794 4.853 20.9372 4.853 21.502C4.853 22.0667 4.3952 22.5245 3.83042 22.5245C2.87195 22.5245 2.0921 23.3043 2.0921 24.2629V32.9549H7.30704C7.87182 32.9549 8.32962 33.4127 8.32962 33.9775C8.32962 34.5423 7.87189 35 7.3071 35Z" fill="#2D527C"/>
<path d="M32.9735 35H26.736C26.1712 35 25.7134 34.5422 25.7134 33.9774C25.7134 33.4126 26.1712 32.9548 26.736 32.9548H31.9509V24.2628C31.9509 23.3043 31.1712 22.5245 30.2126 22.5245C29.6478 22.5245 29.19 22.0667 29.19 21.5019C29.19 20.9371 29.6478 20.4793 30.2126 20.4793C32.2988 20.4793 33.996 22.1766 33.996 24.2627V33.9773C33.9961 34.5422 33.5383 35 32.9735 35Z" fill="#2D527C"/>
<path d="M22.5088 22.1159H11.5342C10.9694 22.1159 10.5116 21.6581 10.5116 21.0933C10.5116 20.5285 10.9694 20.0707 11.5342 20.0707H22.5088C23.0736 20.0707 23.5314 20.5285 23.5314 21.0933C23.5314 21.6581 23.0736 22.1159 22.5088 22.1159Z" fill="#2D527C"/>
<path d="M22.5088 17.821H11.5342C10.9694 17.821 10.5116 17.3632 10.5116 16.7984C10.5116 16.2336 10.9694 15.7758 11.5342 15.7758H22.5088C23.0736 15.7758 23.5314 16.2336 23.5314 16.7984C23.5314 17.3632 23.0736 17.821 22.5088 17.821Z" fill="#2D527C"/>
<path fill-rule="evenodd" clip-rule="evenodd" d="M7.30713 35H26.7359C27.3006 35 27.7585 34.5422 27.7585 33.9775V12.4423C27.7585 10.0638 25.9001 8.08388 23.5277 7.93479C23.5063 7.93335 23.4849 7.93274 23.4635 7.93274H10.5795C10.5581 7.93274 10.5368 7.93349 10.5154 7.93479C8.1429 8.08388 6.28455 10.0638 6.28455 12.4423V33.9774C6.28455 34.5422 6.74235 35 7.30713 35ZM25.7133 32.9548H8.32972V12.4423C8.32972 11.1506 9.33084 10.0738 10.6144 9.97792H23.4287C24.7122 10.0738 25.7133 11.1506 25.7133 12.4423V32.9548Z" fill="#2D527C"/>
</g>
<path d="M17.0215 1.02258C15.8064 1.02258 14.8212 2.00764 14.8212 3.22287V4.95051H13.0936C11.8784 4.95051 10.8933 5.93557 10.8933 7.1508C10.8933 8.36595 11.8784 9.35108 13.0936 9.35108H14.8212V11.0787C14.8212 12.2939 15.8063 13.279 17.0215 13.279C18.2367 13.279 19.2218 12.294 19.2218 11.0787V9.35108H20.9495C22.1646 9.35108 23.1497 8.36602 23.1497 7.1508C23.1497 5.93564 22.1647 4.95051 20.9495 4.95051H19.2218V3.22287C19.2217 2.00764 18.2367 1.02258 17.0215 1.02258Z" fill="#13BA8E"/>
<path fill-rule="evenodd" clip-rule="evenodd" d="M13.7987 11.0785C13.7987 12.8557 15.2445 14.3014 17.0215 14.3014C18.7986 14.3014 20.2443 12.8557 20.2444 11.0787V10.3737H20.9495C22.7266 10.3737 24.1723 8.92794 24.1723 7.1508C24.1723 5.37366 22.7265 3.92793 20.9495 3.92793H20.2444V3.22287C20.2444 1.44573 18.7987 0 17.0215 0C15.2444 0 13.7987 1.44573 13.7987 3.22267V3.92772H13.0936C11.3165 3.92772 9.87073 5.37346 9.87073 7.1506C9.87073 8.92773 11.3165 10.3735 13.0936 10.3735H13.7987V11.0785ZM11.9159 7.1508C11.9159 6.50146 12.4443 5.97311 13.0936 5.97311H14.8212C15.386 5.97311 15.8438 5.5153 15.8438 4.95052V3.22287C15.8438 2.57353 16.3722 2.04518 17.0215 2.04518C17.6709 2.04518 18.1992 2.57353 18.1992 3.22287V4.95038C18.1992 5.51517 18.657 5.97297 19.2218 5.97297H20.9495C21.5988 5.97297 22.1272 6.50132 22.1272 7.15066C22.1272 7.80001 21.5988 8.32836 20.9495 8.32836H19.2218C18.657 8.32836 18.1992 8.78616 18.1992 9.35095V11.0787C18.1992 11.7281 17.6709 12.2564 17.0215 12.2564C16.3722 12.2564 15.8438 11.7281 15.8438 11.0787V9.35108C15.8438 8.7863 15.386 8.3285 14.8212 8.3285H13.0936C12.4443 8.3285 11.9159 7.80015 11.9159 7.1508Z" fill="#2D527C"/>
</g>
<defs>
<clipPath id="clip0">
<rect width="34.2222" height="35" fill="white"/>
</clipPath>
<clipPath id="clip1">
<rect width="34.043" height="27.0703" fill="white" transform="translate(0 7.92969)"/>
</clipPath>
</defs>
</svg>
