<svg width="74" height="74" viewBox="0 0 74 74" fill="none" xmlns="http://www.w3.org/2000/svg">
<g opacity="0.5" clip-path="url(#clip0)">
<path d="M72.2157 68.8567C72.2157 70.7125 70.7125 72.2155 68.8568 72.2155H28.5505C26.6946 72.2155 25.1917 70.7124 25.1917 68.8567V11.7561C25.1917 9.90027 26.6948 8.39728 28.5505 8.39728H68.8568C70.7127 8.39728 72.2157 9.90042 72.2157 11.7561V68.8567Z" fill="white"/>
<path fill-rule="evenodd" clip-rule="evenodd" d="M28.5503 73.895H68.8567C71.6345 73.895 73.895 71.6345 73.895 68.8568V11.7561C73.895 8.97824 71.6345 6.71777 68.8567 6.71777H28.5503C25.7725 6.71777 23.512 8.97824 23.512 11.7561V68.8567C23.512 71.6345 25.7725 73.895 28.5503 73.895ZM26.8708 11.7561C26.8708 10.8306 27.6233 10.0766 28.5503 10.0766H68.8567C69.7837 10.0766 70.5362 10.8306 70.5362 11.7561V68.8568C70.5362 69.7823 69.7837 70.5363 68.8567 70.5363H28.5503C27.6233 70.5363 26.8708 69.7821 26.8708 68.8568V11.7561Z" fill="black"/>
<path d="M65.4979 15.1149H31.9093V11.7561C31.9093 6.19051 36.4203 1.6795 41.9859 1.6795H55.4213C60.9869 1.6795 65.4979 6.19051 65.4979 11.7561V15.1149Z" fill="#0093FF"/>
<path fill-rule="evenodd" clip-rule="evenodd" d="M31.9093 16.7944H65.4979C66.4267 16.7944 67.1774 16.0419 67.1774 15.1149V11.7561C67.1774 5.27337 61.9023 0 55.4213 0H41.9859C35.5049 0 30.2298 5.27337 30.2298 11.7561V15.1149C30.2298 16.0419 30.9805 16.7944 31.9093 16.7944ZM63.8184 13.4354H33.5888V11.7561C33.5888 7.12589 37.3557 3.35897 41.9859 3.35897H55.4213C60.0515 3.35897 63.8184 7.12589 63.8184 11.7561V13.4354Z" fill="black"/>
<circle cx="48.7035" cy="8.39714" r="1.67949" fill="black"/>
<g clip-path="url(#clip1)">
<path d="M62.1391 25.1915H35.2681C34.3393 25.1915 33.5886 24.4391 33.5886 23.512C33.5886 22.585 34.3393 21.8325 35.2681 21.8325H62.1391C63.0679 21.8325 63.8186 22.585 63.8186 23.512C63.8186 24.4391 63.0677 25.1915 62.1391 25.1915Z" fill="black"/>
<path d="M48.7035 33.5886H35.2681C34.3393 33.5886 33.5886 32.8362 33.5886 31.9091C33.5886 30.9821 34.3393 30.2298 35.2681 30.2298H48.7035C49.6323 30.2298 50.383 30.9822 50.383 31.9093C50.383 32.8363 49.6323 33.5886 48.7035 33.5886Z" fill="black"/>
<path d="M62.1391 33.5886H55.4213C54.4925 33.5886 53.7418 32.8362 53.7418 31.9091C53.7418 30.9821 54.4925 30.2298 55.4213 30.2298H62.1391C63.0679 30.2298 63.8186 30.9822 63.8186 31.9093C63.8186 32.8363 63.0677 33.5886 62.1391 33.5886Z" fill="black"/>
<path d="M62.1391 41.9859H48.7037C47.7749 41.9859 47.0242 41.2334 47.0242 40.3064C47.0242 39.3793 47.7749 38.6269 48.7037 38.6269H62.1391C63.0678 38.6269 63.8185 39.3793 63.8185 40.3064C63.8185 41.2334 63.0677 41.9859 62.1391 41.9859Z" fill="black"/>
<path d="M41.9859 41.9859H35.2681C34.3393 41.9859 33.5886 41.2334 33.5886 40.3064C33.5886 39.3793 34.3393 38.6269 35.2681 38.6269H41.9859C42.9147 38.6269 43.6654 39.3793 43.6654 40.3064C43.6654 41.2334 42.9145 41.9859 41.9859 41.9859Z" fill="black"/>
<path d="M62.1391 58.7801H48.7037C47.7749 58.7801 47.0242 58.0277 47.0242 57.1006C47.0242 56.1736 47.7749 55.4211 48.7037 55.4211H62.1391C63.0678 55.4211 63.8185 56.1736 63.8185 57.1006C63.8184 58.0278 63.0677 58.7801 62.1391 58.7801Z" fill="black"/>
<path d="M41.9859 58.7801H35.2681C34.3393 58.7801 33.5886 58.0277 33.5886 57.1006C33.5886 56.1736 34.3393 55.4211 35.2681 55.4211H41.9859C42.9147 55.4211 43.6654 56.1736 43.6654 57.1006C43.6652 58.0278 42.9145 58.7801 41.9859 58.7801Z" fill="black"/>
<path d="M48.7035 50.383H35.2681C34.3393 50.383 33.5886 49.6305 33.5886 48.7035C33.5886 47.7764 34.3393 47.024 35.2681 47.024H48.7035C49.6323 47.024 50.383 47.7764 50.383 48.7035C50.383 49.6305 49.6323 50.383 48.7035 50.383Z" fill="black"/>
<path d="M62.1391 50.383H55.4213C54.4925 50.383 53.7418 49.6305 53.7418 48.7035C53.7418 47.7764 54.4925 47.024 55.4213 47.024H62.1391C63.0679 47.024 63.8186 47.7764 63.8186 48.7035C63.8186 49.6305 63.0677 50.383 62.1391 50.383Z" fill="black"/>
</g>
</g>
<circle cx="58.7801" cy="41.9859" r="8.39711" fill="#13BA8E"/>
<circle cx="58.7801" cy="41.9859" r="1.67949" fill="black"/>
<path fill-rule="evenodd" clip-rule="evenodd" d="M68.8567 41.9859C68.8567 36.4286 64.3373 31.9093 58.7801 31.9093C53.2228 31.9093 48.7035 36.4286 48.7035 41.9859C48.7035 46.9687 52.3429 51.1069 57.1006 51.9113V65.4979C57.1006 68.2757 54.8401 70.5362 52.0623 70.5362H50.383C47.6051 70.5362 45.3447 68.2757 45.3447 65.4979V58.7801C45.3447 54.1499 41.5778 50.383 36.9476 50.383H35.2681C30.6379 50.383 26.871 54.1499 26.871 58.7801V65.4979C26.871 68.2757 24.6105 70.5362 21.8327 70.5362H20.1532C17.3754 70.5362 15.1149 68.2757 15.1149 65.4979V36.8317C21.7319 36.0004 26.871 30.3507 26.871 23.5122V16.7944V15.1149V5.03829C26.871 3.18593 25.3645 1.67948 23.5122 1.67948H20.1532C19.2244 1.67948 18.4737 2.43192 18.4737 3.35896C18.4737 4.28601 19.2244 5.03829 20.1532 5.03829H23.512V15.1149V16.7944C23.512 22.3516 18.9927 26.871 13.4354 26.871C7.87817 26.871 3.35881 22.3516 3.35881 16.7944V15.1149V5.03829H6.71763C7.6464 5.03829 8.39711 4.28585 8.39711 3.35881C8.39711 2.43176 7.6464 1.67932 6.71763 1.67932H3.35881C1.50645 1.67948 0 3.18593 0 5.03829V15.1149V16.7944V23.5122C0 30.3509 5.13906 36.0004 11.7561 36.8317V65.4979C11.7561 70.1281 15.523 73.895 20.1532 73.895H21.8327C26.4629 73.895 30.2298 70.1281 30.2298 65.4979V58.7801C30.2298 56.0023 32.4902 53.7418 35.2681 53.7418H36.9476C39.7254 53.7418 41.9859 56.0023 41.9859 58.7801V65.4979C41.9859 70.1281 45.7528 73.895 50.383 73.895H52.0625C56.6927 73.895 60.4596 70.1281 60.4596 65.4979V51.9113C65.2175 51.1068 68.8567 46.9687 68.8567 41.9859ZM3.68473 26.0094C6.13665 28.6024 9.59623 30.2298 13.4354 30.2298C17.2746 30.2298 20.7342 28.6024 23.1862 26.0094C22.0711 30.3592 18.1278 33.5888 13.4354 33.5888C8.74302 33.5888 4.79977 30.359 3.68473 26.0094ZM52.0623 41.9857C52.0623 45.6906 55.0752 48.7035 58.7801 48.7035C62.485 48.7035 65.4979 45.6906 65.4979 41.9859C65.4979 38.281 62.485 35.2679 58.7801 35.2679C55.0752 35.2679 52.0623 38.2808 52.0623 41.9857Z" fill="black"/>
<defs>
<clipPath id="clip0">
<rect width="50.5404" height="74" fill="white" transform="translate(23.4596)"/>
</clipPath>
<clipPath id="clip1">
<rect width="30.3872" height="37.1574" fill="white" transform="translate(33.5362 21.7277)"/>
</clipPath>
</defs>
</svg>
