<svg width="87" height="100" viewBox="0 0 87 100" fill="none" xmlns="http://www.w3.org/2000/svg">
<g clip-path="url(#clip0)">
<path d="M65.8155 93.0496C65.8155 95.5574 63.7843 97.5885 61.2766 97.5885H6.80853C4.30066 97.5885 2.26959 95.5572 2.26959 93.0496V15.8866C2.26959 13.3787 4.30087 11.3477 6.80853 11.3477H61.2766C63.7845 11.3477 65.8155 13.3789 65.8155 15.8866V93.0496Z" fill="white"/>
<path fill-rule="evenodd" clip-rule="evenodd" d="M6.80851 99.8581H61.2766C65.0304 99.8581 68.0851 96.8034 68.0851 93.0498V15.8866C68.0851 12.1328 65.0304 9.07808 61.2766 9.07808H6.80851C3.05468 9.07808 0 12.1328 0 15.8866V93.0496C0 96.8034 3.05468 99.8581 6.80851 99.8581ZM4.53894 15.8866C4.53894 14.636 5.55808 13.617 6.80851 13.617H61.2766C62.527 13.617 63.5462 14.636 63.5462 15.8866V93.0496C63.5462 94.3002 62.527 95.3191 61.2766 95.3191H6.80851C5.55808 95.3191 4.53894 94.3002 4.53894 93.0498V15.8866Z" fill="black"/>
<path d="M54.4681 90.7802H13.617C11.1091 90.7802 9.07806 88.7489 9.07806 86.2413V20.4255H59.0072V86.2411C59.007 88.7489 56.9759 90.7802 54.4681 90.7802Z" fill="#D8EFF7"/>
<path d="M56.7377 20.4255H11.3475V15.8866C11.3475 8.36553 17.4434 2.26958 24.9645 2.26958H43.1205C50.6415 2.26958 56.7375 8.36553 56.7375 15.8866V20.4255H56.7377Z" fill="#0093FF"/>
<path fill-rule="evenodd" clip-rule="evenodd" d="M11.3475 22.6951H56.7377C57.9904 22.6951 59.007 21.6783 59.007 20.4255V15.8866C59.007 7.12617 51.8806 0 43.1204 0H24.9645C16.2043 0 9.07809 7.12617 9.07788 15.8866V20.4255C9.07788 21.6783 10.0947 22.6951 11.3475 22.6951ZM54.4681 18.156H13.617V15.8866C13.617 9.62957 18.7075 4.53894 24.9647 4.53915H43.1206C49.3777 4.53915 54.4681 9.62957 54.4681 15.8866V18.156Z" fill="black"/>
<circle cx="34.0425" cy="11.3474" r="2.26957" fill="black"/>
<path d="M52.1985 34.0426H15.8866C14.6338 34.0426 13.617 33.0257 13.617 31.773C13.617 30.5202 14.6338 29.5034 15.8866 29.5034H52.1987C53.4515 29.5034 54.4683 30.5202 54.4683 31.773C54.4683 33.0257 53.4513 34.0426 52.1985 34.0426Z" fill="black"/>
<path d="M34.0425 45.39H15.8866C14.6338 45.39 13.617 44.3732 13.617 43.1204C13.617 41.8677 14.6338 40.8511 15.8866 40.8511H34.0425C35.2953 40.8511 36.3121 41.8679 36.3121 43.1206C36.3121 44.3734 35.2953 45.39 34.0425 45.39Z" fill="black"/>
<path d="M52.1985 45.39H43.1204C41.8676 45.39 40.8508 44.3732 40.8508 43.1204C40.8508 41.8677 41.8679 40.8511 43.1206 40.8511H52.1987C53.4515 40.8511 54.4683 41.8679 54.4683 43.1206C54.4683 44.3734 53.4513 45.39 52.1985 45.39Z" fill="black"/>
<path d="M52.1985 56.7377H34.0425C32.7898 56.7377 31.7729 55.7209 31.7729 54.4681C31.7729 53.2153 32.7898 52.1985 34.0425 52.1985H52.1985C53.4512 52.1985 54.4681 53.2153 54.4681 54.4681C54.4681 55.7209 53.4512 56.7377 52.1985 56.7377Z" fill="black"/>
<path d="M24.9645 56.7377H15.8864C14.6338 56.7377 13.617 55.7209 13.617 54.4681C13.617 53.2153 14.6338 52.1985 15.8866 52.1985H24.9647C26.2174 52.1985 27.2342 53.2153 27.2342 54.4681C27.2342 55.7209 26.2172 56.7377 24.9645 56.7377Z" fill="black"/>
<path d="M52.1985 79.4326H34.0425C32.7898 79.4326 31.7729 78.4157 31.7729 77.163C31.7729 75.9102 32.7898 74.8934 34.0425 74.8934H52.1985C53.4512 74.8934 54.4681 75.9102 54.4681 77.163C54.4681 78.416 53.4512 79.4326 52.1985 79.4326Z" fill="black"/>
<path d="M24.9645 79.4326H15.8864C14.6336 79.4326 13.6168 78.4157 13.6168 77.163C13.6168 75.9102 14.6336 74.8934 15.8864 74.8934H24.9645C26.2172 74.8934 27.2341 75.9102 27.2341 77.163C27.2341 78.416 26.2172 79.4326 24.9645 79.4326Z" fill="black"/>
<path d="M34.0425 68.0851H15.8866C14.6338 68.0851 13.617 67.0683 13.617 65.8155C13.617 64.5628 14.6338 63.546 15.8866 63.546H34.0425C35.2953 63.546 36.3121 64.5628 36.3121 65.8155C36.3121 67.0683 35.2953 68.0851 34.0425 68.0851Z" fill="black"/>
<path d="M52.1985 68.0851H43.1204C41.8676 68.0851 40.8508 67.0683 40.8508 65.8155C40.8508 64.5628 41.8676 63.546 43.1204 63.546H52.1985C53.4513 63.546 54.4681 64.5628 54.4681 65.8155C54.4681 67.0683 53.4513 68.0851 52.1985 68.0851Z" fill="black"/>
<circle cx="65.8155" cy="54.4681" r="18.156" fill="#13BA8E"/>
<path fill-rule="evenodd" clip-rule="evenodd" d="M45.39 54.4681C45.39 65.7294 54.5543 74.8936 65.8155 74.8936C77.0768 74.8936 86.2411 65.7294 86.2411 54.4681C86.2411 43.2068 77.0768 34.0426 65.8155 34.0426C54.5543 34.0426 45.39 43.2068 45.39 54.4681ZM49.929 54.4681C49.929 45.7077 57.0553 38.5815 65.8155 38.5815C74.576 38.5815 81.7021 45.7079 81.7021 54.4681C81.7021 63.2283 74.576 70.3547 65.8155 70.3547C57.0551 70.3547 49.929 63.2285 49.929 54.4681Z" fill="black"/>
<path d="M65.8155 61.2766C65.2164 61.2766 64.6376 61.0406 64.211 60.6117L57.4025 53.8032C56.5151 52.9157 56.5151 51.4815 57.4025 50.594C58.29 49.7066 59.7242 49.7066 60.6117 50.594L65.364 55.3464L70.677 46.4909C71.3215 45.4151 72.7151 45.0679 73.7908 45.7123C74.8666 46.3568 75.2138 47.7504 74.5693 48.8262L67.7608 60.1736C67.4023 60.7728 66.7849 61.1721 66.0927 61.2585C66.0017 61.2721 65.9087 61.2766 65.8155 61.2766Z" fill="black"/>
</g>
<defs>
<clipPath id="clip0">
<rect width="86.383" height="100" fill="white"/>
</clipPath>
</defs>
</svg>
