<svg width="62" height="75" viewBox="0 0 62 75" fill="none" xmlns="http://www.w3.org/2000/svg">
<path d="M30.1819 58.4597H22.6209C17.3982 58.4597 13.1642 54.2258 13.1642 49.003C13.1642 43.7804 17.3981 39.5463 22.6209 39.5463H30.1819V58.4597Z" fill="#0093FF"/>
<g clip-path="url(#clip0)">
<path fill-rule="evenodd" clip-rule="evenodd" d="M22.6209 60.6618H30.1819C31.3983 60.6618 32.3843 59.6758 32.3843 58.4597V39.5461C32.3843 38.33 31.3983 37.3437 30.1819 37.3437H22.6209C16.1923 37.3437 10.9619 42.5738 10.9619 49.0027C10.9619 55.4316 16.1922 60.6618 22.6209 60.6618ZM15.3666 49.0026C15.3666 45.0025 18.6207 41.7483 22.6209 41.7483V41.7481H27.9795V56.2569H22.6209C18.6209 56.2569 15.3666 53.0028 15.3666 49.0026Z" fill="#2D527C"/>
<path fill-rule="evenodd" clip-rule="evenodd" d="M22.5361 60.6618H39.3231C45.752 60.6618 50.982 55.4313 50.982 49.0027C50.982 42.5741 45.7518 37.3437 39.3229 37.3437H22.5361C16.1075 37.3437 10.877 42.5741 10.877 49.0027C10.877 55.4313 16.1073 60.6618 22.5361 60.6618ZM15.2817 49.0026C15.2817 45.0025 18.5359 41.7483 22.5361 41.7483H39.3229C43.323 41.7483 46.5772 45.0024 46.5772 49.0026C46.5772 53.0026 43.3231 56.2569 39.3229 56.2569H22.5361C18.536 56.2569 15.2817 53.0028 15.2817 49.0026Z" fill="#2D527C"/>
<path d="M51.9698 74H9.88926C4.48928 74 0.0962524 69.607 0.0962524 64.207V35.3414C0.0962524 30.2737 3.96579 26.0928 8.90529 25.5975V24.4488C8.90529 23.2327 9.89128 22.2464 11.1077 22.2464C12.324 22.2464 13.31 23.2327 13.31 24.4488V27.7507C13.31 28.9668 12.324 29.9531 11.1077 29.9531H9.88926C6.91798 29.9531 4.50099 32.3702 4.50099 35.3414V64.2069C4.50099 67.1778 6.91813 69.5951 9.88926 69.5951H51.97C54.9412 69.5951 57.3582 67.1778 57.3582 64.2069V52.2064C57.3582 50.9903 58.3442 50.0041 59.5606 50.0041C60.777 50.0041 61.763 50.9903 61.763 52.2064V64.2069C61.763 69.607 57.3698 74 51.9698 74Z" fill="#2D527C"/>
<path d="M59.5606 42.0654C58.3442 42.0654 57.3582 41.0791 57.3582 39.863V35.3414C57.3582 32.3704 54.9411 29.9531 51.97 29.9531H50.7516C49.5352 29.9531 48.5492 28.9668 48.5492 27.7507V24.4488C48.5492 23.2327 49.5352 22.2464 50.7516 22.2464C51.9679 22.2464 52.9539 23.2327 52.9539 24.4488V25.5975C57.8934 26.0928 61.763 30.2738 61.763 35.3414V39.863C61.763 41.0793 60.777 42.0654 59.5606 42.0654Z" fill="#2D527C"/>
</g>
<path d="M52.183 15.8571H9.67606C5.90539 15.8571 2.84869 12.8004 2.84869 9.02976C2.84869 5.25908 5.90539 2.20239 9.67606 2.20239H52.1831C55.9538 2.20239 59.0105 5.25908 59.0105 9.02976C59.0104 12.8004 55.9537 15.8571 52.183 15.8571Z" fill="#13BA8E"/>
<path fill-rule="evenodd" clip-rule="evenodd" d="M9.6761 18.0595H52.183C57.162 18.0595 61.2129 14.0087 61.2129 9.02973C61.2129 4.05078 57.1621 0 52.1832 0H9.6761C4.69714 0 0.646362 4.05078 0.646362 9.02973C0.646362 14.0087 4.69714 18.0595 9.6761 18.0595ZM5.0511 9.02973C5.0511 6.47963 7.1257 4.40473 9.6761 4.40473H52.1832C54.7336 4.40473 56.8082 6.47963 56.8082 9.02973C56.8082 11.5798 54.7336 13.6547 52.1832 13.6547H9.6761C7.1257 13.6547 5.0511 11.5798 5.0511 9.02973Z" fill="#2D527C"/>
<defs>
<clipPath id="clip0">
<rect width="62" height="52" fill="white" transform="translate(0 22.1133)"/>
</clipPath>
</defs>
</svg>
