<svg width="35" height="35" viewBox="0 0 35 35" fill="none" xmlns="http://www.w3.org/2000/svg">
<g clip-path="url(#clip0)">
<path d="M27.6401 12.7093C27.6401 19.2895 20.3585 33.3617 15.7252 33.3617C11.0919 33.3617 3.8103 19.2894 3.8103 12.7093C3.8103 6.12912 9.14497 0.794373 15.7252 0.794373C22.3054 0.794373 27.6401 6.12904 27.6401 12.7093Z" fill="white"/>
<circle cx="15.7251" cy="26.2128" r="2.38298" fill="white"/>
</g>
<circle cx="17.4752" cy="12.7093" r="6.35459" fill="white"/>
<path fill-rule="evenodd" clip-rule="evenodd" d="M14.2979 26.2128C14.2979 27.9651 15.7229 29.3901 17.4752 29.3901C19.2274 29.3901 20.6524 27.9651 20.6525 26.2128C20.6525 24.4605 19.2275 23.0355 17.4752 23.0355C15.7229 23.0355 14.2979 24.4605 14.2979 26.2128ZM15.8866 26.2128C15.8866 25.3367 16.5991 24.6242 17.4752 24.6242C18.3513 24.6242 19.0638 25.3367 19.0638 26.2128C19.0638 27.0889 18.3513 27.8014 17.4752 27.8014C16.5991 27.8014 15.8866 27.0889 15.8866 26.2128Z" fill="#0093FF"/>
<path d="M34.1561 33.3617H28.5957C28.1573 33.3617 27.8014 33.7176 27.8014 34.156C27.8014 34.5945 28.1573 34.9504 28.5957 34.9504H34.1561C34.5945 34.9504 34.9504 34.5945 34.9504 34.156C34.9503 33.7176 34.5945 33.3617 34.1561 33.3617Z" fill="black"/>
<path fill-rule="evenodd" clip-rule="evenodd" d="M19.7668 33.3617H25.4184C25.8569 33.3617 26.2128 33.7176 26.2128 34.1561C26.2128 34.5945 25.857 34.9504 25.4185 34.9504H0.794351C0.355883 34.9504 0 34.5945 0 34.1561C0 33.7176 0.355883 33.3617 0.794351 33.3617H15.1835C10.2572 30.2058 4.76596 18.3632 4.76596 12.7092C4.76596 5.70165 10.4677 0 17.4752 0C24.4827 0 30.1844 5.70165 30.1844 12.7092C30.1844 18.3632 24.6932 30.2058 19.7668 33.3617ZM17.4751 1.5887C11.343 1.5887 6.35459 6.57702 6.35459 12.7092C6.35459 19.3903 13.7339 32.5674 17.4752 32.5674C21.2165 32.5674 28.5957 19.3903 28.5957 12.7092C28.5957 6.57702 23.6073 1.5887 17.4751 1.5887Z" fill="black"/>
<path fill-rule="evenodd" clip-rule="evenodd" d="M10.3263 12.7092C10.3263 16.6507 13.5338 19.8582 17.4752 19.8582C21.4167 19.8582 24.6242 16.6507 24.6242 12.7092C24.6242 8.76779 21.4167 5.5603 17.4752 5.5603C13.5338 5.5603 10.3263 8.76779 10.3263 12.7092ZM11.9149 12.7092C11.9149 9.64309 14.4091 7.14893 17.4752 7.14893C20.5413 7.14893 23.0355 9.64309 23.0355 12.7092C23.0355 15.7754 20.5414 18.2695 17.4752 18.2695C14.4091 18.2695 11.9149 15.7754 11.9149 12.7092Z" fill="black"/>
<path d="M19.8582 11.5177H18.6667V10.3263C18.6667 9.66773 18.1337 9.13477 17.4752 9.13477C16.8167 9.13477 16.2837 9.66773 16.2837 10.3263V11.5177H15.0922C14.4337 11.5177 13.9008 12.0507 13.9008 12.7092C13.9008 13.3678 14.4337 13.9007 15.0922 13.9007H16.2837V15.0922C16.2837 15.7507 16.8167 16.2837 17.4752 16.2837C18.1337 16.2837 18.6667 15.7507 18.6667 15.0922V13.9007H19.8582C20.5167 13.9007 21.0497 13.3678 21.0497 12.7092C21.0497 12.0507 20.5167 11.5177 19.8582 11.5177Z" fill="#13BA8E"/>
<defs>
<clipPath id="clip0">
<rect width="23.9043" height="32.617" fill="white" transform="translate(3.76062 0.74469)"/>
</clipPath>
</defs>
</svg>
