<svg width="100" height="100" viewBox="0 0 100 100" fill="none" xmlns="http://www.w3.org/2000/svg">
<path fill-rule="evenodd" clip-rule="evenodd" d="M99.7788 91.634C99.7788 89.545 98.9835 87.4586 97.3903 85.8696L73.5662 62.1078C72.7972 61.3408 71.5504 61.3408 70.7814 62.1078L69.8287 63.0581L67.4927 60.7283C78.8706 46.0084 77.7998 24.7335 64.2801 11.2466C49.5951 -3.40001 25.7 -3.40001 11.015 11.2466C-3.67004 25.8932 -3.67004 49.7256 11.015 64.3722C18.3562 71.6969 28.0019 75.3565 37.6475 75.3565C45.763 75.3565 53.8811 72.7623 60.6239 67.5764L62.9625 69.9089L62.0098 70.8592C61.6397 71.2256 61.4323 71.7256 61.4323 72.2466C61.4323 72.7675 61.6397 73.2675 62.0098 73.634L85.8339 97.3958C87.4271 98.9848 89.5189 99.7806 91.6108 99.7806C93.7027 99.7806 95.7971 98.9848 97.3903 97.3958C98.9835 95.8068 99.7788 93.7204 99.7788 91.634ZM94.6058 88.6474C96.2567 90.294 96.2567 92.972 94.6058 94.6212C92.9549 96.2675 90.2672 96.2675 88.6163 94.6212L66.1859 72.2469L72.1754 66.273L94.6058 88.6474ZM71.3748 37.8094C71.3748 28.8251 67.8657 20.3775 61.4956 14.0241C55.1255 7.67067 46.6557 4.17067 37.6478 4.17067C28.6373 4.17067 20.1675 7.67067 13.7974 14.0241C7.42734 20.3775 3.92077 28.8251 3.92077 37.8094C3.92077 46.7937 7.42734 55.2414 13.7974 61.5948C20.1675 67.9482 28.6373 71.4482 37.6478 71.4482C46.6557 71.4482 55.1255 67.9482 61.4956 61.5948C67.8657 55.2414 71.3748 46.794 71.3748 37.8094ZM67.0465 65.8359L65.7473 67.1317L63.6213 65.0113C63.8418 64.8018 64.0622 64.5898 64.2801 64.3725C64.4953 64.1552 64.7105 63.938 64.9205 63.7154L67.0465 65.8359Z" fill="#2D527C"/>
<path d="M94.6057 88.6474C96.2567 90.294 96.2567 92.972 94.6057 94.6212C92.9548 96.2678 90.2672 96.2678 88.6162 94.6212L66.1858 72.2469L72.1753 66.273L94.6057 88.6474Z" fill="#0093FF"/>
<path fill-rule="evenodd" clip-rule="evenodd" d="M71.3748 37.8094C71.3748 28.8251 67.8657 20.3775 61.4956 14.0241C55.1252 7.67068 46.6557 4.17068 37.6478 4.17068C28.6373 4.17068 20.1675 7.67068 13.7974 14.0241C7.42734 20.3775 3.92078 28.8251 3.92078 37.8094C3.92078 46.7937 7.42734 55.2414 13.7974 61.5948C20.1675 67.9482 28.6373 71.4482 37.6478 71.4482C46.6557 71.4482 55.1255 67.9482 61.4956 61.5948C67.8657 55.2414 71.3748 46.7937 71.3748 37.8094ZM58.5583 16.9508C64.1436 22.5241 67.2224 29.9298 67.2224 37.8094C67.2224 45.6893 64.1436 53.0948 58.5583 58.6681C52.973 64.2387 45.5452 67.3068 37.6475 67.3068C29.7473 67.3068 22.3195 64.2387 16.7342 58.6681C11.1489 53.0948 8.07274 45.689 8.07274 37.8094C8.07274 29.9298 11.1489 22.5241 16.7342 16.9508C22.3195 11.3801 29.7473 8.31205 37.6475 8.31205C45.5452 8.31205 52.973 11.3801 58.5583 16.9508Z" fill="#13BA8E"/>
<path d="M67.0464 65.8356L65.7472 67.1314L63.6212 65.011C63.8417 64.8016 64.0622 64.5895 64.28 64.3722C64.4952 64.155 64.7105 63.9377 64.9204 63.7152L67.0464 65.8356Z" fill="#13BA8E"/>
<path fill-rule="evenodd" clip-rule="evenodd" d="M67.2224 37.8094C67.2224 29.9298 64.1436 22.5241 58.5583 16.9508C52.973 11.3801 45.5452 8.3123 37.6476 8.31204C29.7473 8.31204 22.3195 11.3801 16.7342 16.9508C11.1489 22.5241 8.07275 29.9298 8.07275 37.8094C8.07275 45.689 11.1489 53.0948 16.7342 58.6681C22.3195 64.2387 29.7473 67.3068 37.6476 67.3068C45.5452 67.3068 52.973 64.2387 58.5583 58.6681C64.1436 53.0948 67.2224 45.689 67.2224 37.8094ZM55.7764 19.7285C65.7712 29.6997 65.7712 45.9196 55.7764 55.8908C50.9336 60.7204 44.4956 63.3804 37.6478 63.3804C30.8001 63.3804 24.3617 60.7207 19.5192 55.8908C9.52184 45.9196 9.52184 29.6997 19.5192 19.7285C24.3617 14.8987 30.8001 12.239 37.6478 12.239C44.4956 12.239 50.9339 14.8987 55.7764 19.7285Z" fill="#2D527C"/>
<path d="M53.9548 21.545C54.7239 22.312 54.7239 23.5529 53.9548 24.3199C53.569 24.7047 53.0677 24.8958 52.5638 24.8958C52.0598 24.8958 51.5559 24.7047 51.1701 24.3199C50.0835 23.2361 48.8735 22.2859 47.5716 21.4979C46.6425 20.9351 46.3485 19.7257 46.9129 18.799C47.4772 17.8749 48.6898 17.5791 49.6189 18.1419C51.1858 19.0948 52.6449 20.2387 53.9548 21.545Z" fill="black"/>
<path d="M53.9548 51.299C54.7239 52.066 54.7239 53.3068 53.9548 54.0738C49.5848 58.4325 43.7711 60.8147 37.6845 60.8147C36.7659 60.8147 35.842 60.7597 34.9155 60.6497C33.8367 60.5241 33.0651 59.5476 33.1937 58.4691C33.3197 57.3932 34.2987 56.6236 35.38 56.7518C41.2436 57.4456 46.9995 55.4586 51.1701 51.299C51.9388 50.5322 53.1856 50.5322 53.9548 51.299Z" fill="black"/>
<path d="M41.212 15.0817C42.2881 15.2492 43.023 16.2518 42.8551 17.3251C42.6871 18.3958 41.6818 19.1288 40.6057 18.9613C34.5873 18.0267 28.4246 20.0293 24.1228 24.3199C23.7396 24.7047 23.2356 24.8958 22.7317 24.8958C22.2278 24.8958 21.7238 24.7047 21.338 24.3199C20.569 23.5529 20.569 22.312 21.338 21.545C26.5267 16.3699 33.9545 13.956 41.212 15.0817Z" fill="black"/>
<path d="M27.5427 54.011C28.464 54.5843 28.7448 55.7963 28.17 56.7152C27.7973 57.312 27.1543 57.6393 26.4981 57.6393C26.1438 57.6393 25.7816 57.545 25.4587 57.3435C23.9732 56.4194 22.5873 55.3199 21.338 54.0738C20.569 53.3068 20.569 52.066 21.338 51.299C22.107 50.5319 23.3538 50.5319 24.1228 51.299C25.1593 52.3332 26.3091 53.2442 27.5427 54.011Z" fill="black"/>
</svg>
