<svg width="111" height="100" viewBox="0 0 111 100" fill="none" xmlns="http://www.w3.org/2000/svg">
<g clip-path="url(#clip0)">
<path d="M107.538 47.0225C105.74 31.7794 91.9255 20.8829 76.6824 22.6815C61.4393 24.4801 50.5428 38.2967 52.3414 53.5375C52.7637 57.1122 53.8677 60.4347 55.474 63.4248L49.9609 77.4438H74.1595C77.0571 78.0609 80.0948 78.2457 83.2 77.8785C98.4405 76.0799 109.337 62.2656 107.538 47.0225Z" fill="#13BA8E"/>
<path fill-rule="evenodd" clip-rule="evenodd" d="M73.8998 79.9419C75.9307 80.3567 77.9766 80.5639 80.0101 80.5639C81.174 80.5639 82.3356 80.4965 83.4923 80.3616C91.5283 79.4124 98.7129 75.3906 103.724 69.0405C108.733 62.6881 110.971 54.7642 110.022 46.7305C109.072 38.6967 105.055 31.5122 98.7028 26.5012C92.3478 21.4902 84.4239 19.2543 76.3927 20.2012C68.3567 21.1504 61.1721 25.1721 56.1611 31.5223C51.1525 37.8747 48.9143 45.7986 49.8635 53.8323C50.263 57.2122 51.2297 60.4796 52.7386 63.5623L47.6377 76.5298C47.3328 77.2991 47.4302 78.1684 47.8974 78.8504C48.3597 79.5323 49.134 79.9419 49.9609 79.9419H73.8998ZM74.1595 74.9457H53.6281L57.8021 64.3391C58.0696 63.6546 58.0246 62.8878 57.6773 62.2408C56.1536 59.4103 55.1944 56.3853 54.8246 53.2452C54.0302 46.5354 55.8986 39.9206 60.0829 34.6148C64.2672 29.3112 70.2651 25.9539 76.9773 25.1621C83.6794 24.3726 90.3019 26.2386 95.6052 30.423C100.911 34.6073 104.268 40.6049 105.058 47.3148C105.852 54.0246 103.984 60.6394 99.7995 65.9452C95.6152 71.2487 89.6173 74.6061 82.9052 75.3979C80.1949 75.7176 77.4269 75.5853 74.6792 75.0007C74.5091 74.9632 74.3344 74.9457 74.1595 74.9457Z" fill="black"/>
<path d="M91.0564 44.7218H85.4984V39.1637C85.4984 36.0937 83.0103 33.6056 79.9403 33.6056C76.8703 33.6056 74.3822 36.0937 74.3822 39.1637V44.7218H68.8241C65.7541 44.7218 63.2661 47.2098 63.2661 50.2799C63.2661 53.3499 65.7541 55.8379 68.8241 55.8379H74.3822V61.396C74.3822 64.466 76.8703 66.9541 79.9403 66.9541C83.0103 66.9541 85.4984 64.466 85.4984 61.396V55.8379H91.0564C94.1265 55.8379 96.6145 53.3499 96.6145 50.2799C96.6145 47.2098 94.1265 44.7218 91.0564 44.7218Z" fill="white"/>
<path d="M22.0579 97.4281L16.115 94.393C7.75903 90.1239 2.49814 81.5304 2.49814 72.1478V27.785C2.49814 18.3998 7.75645 9.80913 16.115 5.53981L22.0579 2.50211H34.9728C37.7333 2.50211 39.9689 4.73794 39.9689 7.49812V22.4864C39.9689 25.2468 37.733 27.4824 34.9728 27.4824H32.4747C26.9565 27.4824 22.4824 31.9564 22.4824 37.4747V62.4553C22.4824 67.9735 26.9565 72.4475 32.4747 72.4475H34.9728C37.7333 72.4475 39.9689 74.6834 39.9689 77.4436V92.4318C39.9689 95.1923 37.733 97.4279 34.9728 97.4279H22.0579V97.4281Z" fill="#0093FF"/>
<path fill-rule="evenodd" clip-rule="evenodd" d="M22.0578 99.9262H34.9726C39.1045 99.9262 42.4667 96.5639 42.4667 92.4323V77.444C42.4667 73.3122 39.1045 69.9499 34.9726 69.9499H32.4745C28.3426 69.9499 24.9803 66.5876 24.9803 62.4557V37.4752C24.9803 33.3433 28.3426 29.981 32.4745 29.981H34.9726C39.1045 29.981 42.4667 26.6187 42.4667 22.4869V7.4986C42.4667 3.36675 39.1045 0.00445557 34.9726 0.00445557H22.0576C21.663 0.00445557 21.2733 0.0993033 20.9211 0.279163L14.9782 3.31429C5.74051 8.03303 0 17.4108 0 27.785V72.148C0 82.5223 5.74052 91.9 14.9785 96.6187L20.9213 99.6539C21.2735 99.8314 21.6632 99.9262 22.0578 99.9262ZM34.9728 94.9302H22.6574L17.2515 92.1696C9.69227 88.3077 4.99602 80.6361 4.99602 72.1478V27.785C4.99602 19.2967 9.69251 11.6253 17.2515 7.76324L22.6574 5.00024H34.9728C36.3518 5.00024 37.471 6.12202 37.471 7.49837V22.4867C37.471 23.8632 36.3518 24.9848 34.9728 24.9848H32.4747C25.5876 24.9848 19.9845 30.5878 19.9845 37.4749V62.4555C19.9845 69.3426 25.5876 74.9457 32.4747 74.9457H34.9728C36.3518 74.9457 37.471 76.0675 37.471 77.4438V92.4321C37.471 93.8087 36.3518 94.9302 34.9728 94.9302Z" fill="black"/>
<circle cx="29.9766" cy="84.9379" r="2.49813" fill="black"/>
<circle cx="19.9843" cy="82.4398" r="2.49813" fill="black"/>
<circle cx="29.9766" cy="14.9925" r="2.49813" fill="black"/>
<circle cx="19.9843" cy="17.4906" r="2.49813" fill="black"/>
</g>
<defs>
<clipPath id="clip0">
<rect width="110.833" height="100" fill="white"/>
</clipPath>
</defs>
</svg>
